<?xml version="1.0" standalone="no"?>
<!DOCTYPE svg PUBLIC "-//W3C//DTD SVG 20010904//EN"
 "http://www.w3.org/TR/2001/REC-SVG-20010904/DTD/svg10.dtd">
<svg version="1.0" xmlns="http://www.w3.org/2000/svg"
 width="1080.000000pt" height="1080.000000pt" viewBox="0 0 1080.000000 1080.000000"
 preserveAspectRatio="xMidYMid meet">

<g transform="translate(0.000000,1080.000000) scale(0.100000,-0.100000)"
fill="#000000" stroke="none">
<path d="M7670 8853 c-869 -46 -1645 -176 -2490 -418 -296 -85 -772 -249 -957
-331 l-53 -23 0 -1605 0 -1606 -1290 0 -1291 0 151 -222 c83 -123 198 -291
255 -375 l104 -152 -254 -373 -255 -373 525 -5 525 -5 -45 -60 c-59 -79 -127
-211 -157 -305 -30 -98 -33 -307 -5 -410 82 -300 332 -521 694 -617 132 -34
410 -44 548 -19 522 96 913 413 1031 836 16 57 18 98 16 323 l-3 257 683 0
684 0 12 -47 c36 -134 139 -289 257 -386 459 -378 1244 -321 1720 125 72 67
166 186 205 260 l25 48 453 2 453 3 -250 367 c-138 202 -251 373 -251 380 1 7
113 177 250 378 l249 365 -409 3 -410 2 0 1995 0 1995 -332 -2 c-183 -1 -358
-3 -388 -5z m140 -2968 l0 -1015 -1545 0 -1545 0 2 723 3 722 95 32 c317 106
909 254 1385 347 459 89 1285 198 1553 205 l52 1 0 -1015z m-1432 -1329 l-4
-204 52 35 c132 88 288 83 372 -12 71 -80 75 -108 80 -467 l3 -318 -145 0
-145 0 -3 284 c-3 263 -4 285 -22 305 -34 37 -110 27 -163 -22 -23 -20 -23
-23 -23 -294 l0 -273 -145 0 -145 0 0 585 0 585 146 0 147 0 -5 -204z m-1388
-16 l0 -110 95 0 95 0 0 -115 0 -115 -95 0 -95 0 0 -155 c0 -219 17 -252 125
-243 l53 4 20 -100 c15 -73 17 -103 9 -108 -25 -15 -155 -30 -219 -25 -116 10
-186 54 -234 148 -32 65 -44 149 -44 326 l0 152 -52 3 -53 3 -3 106 -3 106 61
6 c34 3 64 7 66 10 3 2 11 46 19 98 9 52 17 100 20 107 3 9 37 12 120 12 l115
0 0 -110z m-2004 -118 c23 -12 57 -39 76 -61 l34 -40 49 40 c85 70 120 84 210
83 97 0 150 -24 195 -86 59 -81 64 -120 65 -458 l0 -305 -142 -3 -142 -3 -3
285 c-3 263 -4 286 -22 305 -28 30 -91 28 -139 -4 l-37 -26 0 -279 0 -280
-145 0 -144 0 -3 284 c-3 263 -4 285 -22 305 -26 29 -79 27 -133 -4 l-43 -26
0 -280 0 -280 -142 3 -143 3 -3 418 -2 417 119 0 119 0 7 -50 c4 -27 9 -50 11
-50 3 0 28 17 57 39 94 69 128 82 217 77 41 -2 80 -11 106 -24z m1325 3 c60
-21 124 -76 151 -129 43 -84 48 -127 48 -424 l0 -283 -117 3 -117 3 -9 35 c-5
19 -10 37 -12 39 -2 2 -18 -8 -34 -22 -60 -50 -120 -72 -201 -72 -64 0 -82 4
-122 28 -118 69 -162 217 -100 338 48 95 140 145 324 177 106 18 117 28 78 70
-41 44 -135 41 -238 -8 -70 -33 -61 -38 -121 74 l-43 79 23 18 c34 26 169 77
231 88 72 13 203 6 259 -14z m1494 10 c52 -14 74 -25 134 -64 10 -7 -2 -29
-54 -100 -64 -87 -68 -91 -89 -78 -92 60 -212 0 -236 -119 -40 -190 90 -324
238 -246 24 12 47 20 52 17 17 -11 101 -167 96 -180 -9 -26 -95 -66 -175 -83
-189 -39 -377 41 -458 195 -42 79 -56 152 -51 264 3 79 9 105 34 160 86 183
309 286 509 234z m1781 -19 c72 -33 137 -102 165 -174 31 -82 45 -187 33 -258
l-9 -59 -237 -3 -237 -2 10 -28 c36 -96 180 -131 310 -74 l46 20 42 -78 c22
-42 41 -82 41 -88 0 -7 -19 -21 -42 -33 -203 -103 -416 -85 -558 47 -164 154
-172 458 -15 632 46 51 135 105 201 122 64 16 189 4 250 -24z m952 20 c5 -3 1
-46 -9 -103 -31 -161 -21 -146 -87 -138 -48 5 -64 2 -101 -17 -25 -13 -59 -40
-75 -61 l-31 -39 -3 -244 -3 -245 -142 3 -142 3 -3 418 -2 417 119 0 119 0 6
-31 c3 -17 6 -43 6 -58 0 -52 15 -54 48 -7 55 77 143 119 234 112 31 -2 61 -7
66 -10z"/>
<path d="M4140 3945 c-49 -15 -83 -45 -94 -82 -5 -17 -1 -29 18 -48 32 -32 72
-32 117 -2 32 21 34 27 37 85 3 70 2 71 -78 47z"/>
<path d="M7363 4211 c-30 -19 -63 -66 -63 -91 0 -6 43 -10 120 -10 l120 0 0
29 c0 74 -105 117 -177 72z"/>
</g>
</svg>
